<svg class="animated" id="freepik_stories-scary-ghost" xmlns="http://www.w3.org/2000/svg" viewBox="0 0 500 500" version="1.1" xmlns:xlink="http://www.w3.org/1999/xlink" xmlns:svgjs="http://svgjs.com/svgjs"><style>svg#freepik_stories-scary-ghost:not(.animated) .animable {opacity: 0;}svg#freepik_stories-scary-ghost.animated #freepik--Ghost--inject-37 {animation: 3s Infinite  linear floating;animation-delay: 0s;}            @keyframes floating {                0% {                    opacity: 1;                    transform: translateY(0px);                }                50% {                    transform: translateY(-10px);                }                100% {                    opacity: 1;                    transform: translateY(0px);                }            }        </style><g id="freepik--background-simple--inject-37" class="animable" style="transform-origin: 250.711px 268.134px;"><path d="M180.71,475.82s80.7,27.41,155.94-19.8S446.22,317.11,476,243.61,482.39,96.3,421.26,63.53,322.48,81.31,239.4,85.2,133.29,77.31,66.83,126.61-6,289.72,52.93,372.8,180.71,475.82,180.71,475.82Z" style="fill: rgb(0, 255, 136); transform-origin: 250.711px 268.134px;" id="elpaps84a8bsk" class="animable"></path><g id="elhfpbx07x9ct"><path d="M180.71,475.82s80.7,27.41,155.94-19.8S446.22,317.11,476,243.61,482.39,96.3,421.26,63.53,322.48,81.31,239.4,85.2,133.29,77.31,66.83,126.61-6,289.72,52.93,372.8,180.71,475.82,180.71,475.82Z" style="fill: rgb(255, 255, 255); opacity: 0.7; transform-origin: 250.711px 268.134px;" class="animable"></path></g></g><g id="freepik--Bricks--inject-37" class="animable" style="transform-origin: 240.92px 270.025px;"><g id="elnxai1ugkwds"><g style="opacity: 0.3; transform-origin: 240.92px 270.025px;" class="animable"><path d="M425.42,151.91h17.49a3,3,0,0,1,3,3v11.92a3,3,0,0,1-3,3H404.13a3,3,0,0,1-3-3V154.9a3,3,0,0,1,3-3h13.13" style="fill: none; stroke: rgb(0, 0, 0); stroke-miterlimit: 10; transform-origin: 423.52px 160.865px;" id="elk58gyydtprm" class="animable"></path><path d="M443,192.41H427.36a3,3,0,0,1-3-3V177.5a3,3,0,0,1,3-3h38.78a3,3,0,0,1,3,3v11.92a3,3,0,0,1-3,3H452.41" style="fill: none; stroke: rgb(0, 0, 0); stroke-miterlimit: 10; transform-origin: 446.75px 183.46px;" id="el884nontgxy5" class="animable"></path><path d="M375.4,182.61V177.5a3,3,0,0,1,3-3h38.78a3,3,0,0,1,3,3v11.92a3,3,0,0,1-3,3H378.39a3,3,0,0,1-3-3" style="fill: none; stroke: rgb(0, 0, 0); stroke-miterlimit: 10; transform-origin: 397.785px 183.46px;" id="eldrpcju74fn" class="animable"></path><path d="M162.9,235.88h17.5a3,3,0,0,1,3,3v11.92a3,3,0,0,1-3,3H141.62a3,3,0,0,1-3-3V238.87a3,3,0,0,1,3-3h13.12" style="fill: none; stroke: rgb(0, 0, 0); stroke-miterlimit: 10; transform-origin: 161.01px 244.835px;" id="el1et7xpvow1s" class="animable"></path><path d="M180.48,276.38H164.85a3,3,0,0,1-3-3V261.47a3,3,0,0,1,3-3h38.77a3,3,0,0,1,3,3v11.92a3,3,0,0,1-3,3H189.9" style="fill: none; stroke: rgb(0, 0, 0); stroke-miterlimit: 10; transform-origin: 184.235px 267.43px;" id="elk2pzegwccks" class="animable"></path><path d="M112.89,266.58v-5.11a3,3,0,0,1,3-3h38.78a3,3,0,0,1,3,3v11.92a3,3,0,0,1-3,3H115.88a3,3,0,0,1-3-3" style="fill: none; stroke: rgb(0, 0, 0); stroke-miterlimit: 10; transform-origin: 135.275px 267.43px;" id="ela0ny5bfnhyh" class="animable"></path><path d="M425.42,420h17.49a3,3,0,0,1,3,3v11.93a3,3,0,0,1-3,3H404.13a3,3,0,0,1-3-3V423a3,3,0,0,1,3-3h13.13" style="fill: none; stroke: rgb(0, 0, 0); stroke-miterlimit: 10; transform-origin: 423.52px 428.965px;" id="elb29svdmv1c" class="animable"></path><path d="M443,460.52H427.36a3,3,0,0,1-3-3V445.6a3,3,0,0,1,3-3h38.78a3,3,0,0,1,3,3v11.93a3,3,0,0,1-3,3H452.41" style="fill: none; stroke: rgb(0, 0, 0); stroke-miterlimit: 10; transform-origin: 446.75px 451.565px;" id="el2oc119hgdr5" class="animable"></path><path d="M375.4,450.71V445.6a3,3,0,0,1,3-3h38.78a3,3,0,0,1,3,3v11.93a3,3,0,0,1-3,3H378.39a3,3,0,0,1-3-3" style="fill: none; stroke: rgb(0, 0, 0); stroke-miterlimit: 10; transform-origin: 397.785px 451.565px;" id="elt4cepjx6bcn" class="animable"></path><path d="M62.73,396.45H80.22a3,3,0,0,1,3,3v11.92a3,3,0,0,1-3,3H41.44a3,3,0,0,1-3-3V399.44a3,3,0,0,1,3-3H54.57" style="fill: none; stroke: rgb(0, 0, 0); stroke-miterlimit: 10; transform-origin: 60.83px 405.405px;" id="el576d72910p" class="animable"></path><path d="M80.31,437H64.67a3,3,0,0,1-3-3V422a3,3,0,0,1,3-3h38.78a3,3,0,0,1,3,3V434a3,3,0,0,1-3,3H89.72" style="fill: none; stroke: rgb(0, 0, 0); stroke-miterlimit: 10; transform-origin: 84.06px 428px;" id="el5b6t0zpcbow" class="animable"></path><path d="M12.71,427.15V422a3,3,0,0,1,3-3H54.48a3,3,0,0,1,3,3V434a3,3,0,0,1-3,3H15.7a3,3,0,0,1-3-3" style="fill: none; stroke: rgb(0, 0, 0); stroke-miterlimit: 10; transform-origin: 35.09px 428px;" id="elhvs4qct2bbt" class="animable"></path><path d="M323.08,79.53h17.49a3,3,0,0,1,3,3V94.45a3,3,0,0,1-3,3H301.79a3,3,0,0,1-3-3V82.52a3,3,0,0,1,3-3h13.13" style="fill: none; stroke: rgb(0, 0, 0); stroke-miterlimit: 10; transform-origin: 321.18px 88.485px;" id="elu9qn7qd8aj" class="animable"></path><path d="M340.66,120H325a3,3,0,0,1-3-3V105.12a3,3,0,0,1,3-3H363.8a3,3,0,0,1,3,3v11.93a3,3,0,0,1-3,3H350.08" style="fill: none; stroke: rgb(0, 0, 0); stroke-miterlimit: 10; transform-origin: 344.4px 111.085px;" id="elrz6zximsmx" class="animable"></path><path d="M273.06,110.23v-5.11a3,3,0,0,1,3-3h38.77a3,3,0,0,1,3,3v11.93a3,3,0,0,1-3,3H276.06a3,3,0,0,1-3-3" style="fill: none; stroke: rgb(0, 0, 0); stroke-miterlimit: 10; transform-origin: 295.445px 111.085px;" id="el0i831xfuggvd" class="animable"></path><path d="M237.3,396.45h17.49a3,3,0,0,1,3,3v11.92a3,3,0,0,1-3,3H216a3,3,0,0,1-3-3V399.44a3,3,0,0,1,3-3h13.13" style="fill: none; stroke: rgb(0, 0, 0); stroke-miterlimit: 10; transform-origin: 235.395px 405.405px;" id="el6c8ksxzqua8" class="animable"></path><path d="M254.88,437H239.24a3,3,0,0,1-3-3V422a3,3,0,0,1,3-3H278a3,3,0,0,1,3,3V434a3,3,0,0,1-3,3H264.29" style="fill: none; stroke: rgb(0, 0, 0); stroke-miterlimit: 10; transform-origin: 258.62px 428px;" id="elh57hgidbd3" class="animable"></path><path d="M187.28,427.15V422a3,3,0,0,1,3-3h38.78a3,3,0,0,1,3,3V434a3,3,0,0,1-3,3H190.27a3,3,0,0,1-3-3" style="fill: none; stroke: rgb(0, 0, 0); stroke-miterlimit: 10; transform-origin: 209.665px 428px;" id="eleryn16beivi" class="animable"></path><path d="M135.65,419.28h17.49a3,3,0,0,1,3,3V434.2a3,3,0,0,1-3,3H114.36a3,3,0,0,1-3-3V422.27a3,3,0,0,1,3-3h13.13" style="fill: none; stroke: rgb(0, 0, 0); stroke-miterlimit: 10; transform-origin: 133.75px 428.235px;" id="elkbfu9m3r9zn" class="animable"></path><path d="M153.23,459.79H137.59a3,3,0,0,1-3-3V444.88a3,3,0,0,1,3-3h38.78a3,3,0,0,1,3,3V456.8a3,3,0,0,1-3,3H162.64" style="fill: none; stroke: rgb(0, 0, 0); stroke-miterlimit: 10; transform-origin: 156.98px 450.84px;" id="elho00yph2n2i" class="animable"></path><path d="M85.63,450v-5.1a3,3,0,0,1,3-3H127.4a3,3,0,0,1,3,3V456.8a3,3,0,0,1-3,3H88.62a3,3,0,0,1-3-3" style="fill: none; stroke: rgb(0, 0, 0); stroke-miterlimit: 10; transform-origin: 108.01px 450.85px;" id="elyksjkg5e2on" class="animable"></path><path d="M70.39,85.47H87.88a3,3,0,0,1,3,3v11.92a3,3,0,0,1-3,3H49.1a3,3,0,0,1-3-3V88.46a3,3,0,0,1,3-3H62.23" style="fill: none; stroke: rgb(0, 0, 0); stroke-miterlimit: 10; transform-origin: 68.49px 94.425px;" id="elmli9cwqmmvc" class="animable"></path><path d="M88,126H72.33a3,3,0,0,1-3-3V111.06a3,3,0,0,1,3-3h38.78a3,3,0,0,1,3,3V123a3,3,0,0,1-3,3H97.38" style="fill: none; stroke: rgb(0, 0, 0); stroke-miterlimit: 10; transform-origin: 91.72px 117.03px;" id="elc5acsqkj96v" class="animable"></path><path d="M20.37,116.17v-5.11a3,3,0,0,1,3-3H62.14a3,3,0,0,1,3,3V123a3,3,0,0,1-3,3H23.36a3,3,0,0,1-3-3" style="fill: none; stroke: rgb(0, 0, 0); stroke-miterlimit: 10; transform-origin: 42.75px 117.03px;" id="elfszo0jo8brh" class="animable"></path><path d="M376.46,244H394a3,3,0,0,1,3,3v11.93a3,3,0,0,1-3,3H355.17a3,3,0,0,1-3-3V247a3,3,0,0,1,3-3h13.12" style="fill: none; stroke: rgb(0, 0, 0); stroke-miterlimit: 10; transform-origin: 374.585px 252.965px;" id="eld8t4gj17d4p" class="animable"></path><path d="M394,284.53H378.4a3,3,0,0,1-3-3V269.61a3,3,0,0,1,3-3h38.78a3,3,0,0,1,3,3v11.93a3,3,0,0,1-3,3H403.45" style="fill: none; stroke: rgb(0, 0, 0); stroke-miterlimit: 10; transform-origin: 397.79px 275.575px;" id="eles4shmrl1nh" class="animable"></path><path d="M326.44,274.72v-5.11a3,3,0,0,1,3-3h38.78a3,3,0,0,1,3,3v11.93a3,3,0,0,1-3,3H329.43a3,3,0,0,1-3-3" style="fill: none; stroke: rgb(0, 0, 0); stroke-miterlimit: 10; transform-origin: 348.825px 275.575px;" id="elluzo3nfuoc" class="animable"></path><path d="M329,198.86h17.49a3,3,0,0,1,3,3v11.92a3,3,0,0,1-3,3H307.69a3,3,0,0,1-3-3V201.85a3,3,0,0,1,3-3h13.12" style="fill: none; stroke: rgb(0, 0, 0); stroke-miterlimit: 10; transform-origin: 327.09px 207.815px;" id="elwadxpo0ouo" class="animable"></path><path d="M346.55,239.36H330.92a3,3,0,0,1-3-3V224.45a3,3,0,0,1,3-3h38.77a3,3,0,0,1,3,3v11.92a3,3,0,0,1-3,3H356" style="fill: none; stroke: rgb(0, 0, 0); stroke-miterlimit: 10; transform-origin: 350.305px 230.41px;" id="elu18sf3cck4o" class="animable"></path><path d="M279,229.56v-5.11a3,3,0,0,1,3-3h38.78a3,3,0,0,1,3,3v11.92a3,3,0,0,1-3,3H282a3,3,0,0,1-3-3" style="fill: none; stroke: rgb(0, 0, 0); stroke-miterlimit: 10; transform-origin: 301.39px 230.41px;" id="el72fnrjztf8n" class="animable"></path></g></g></g><g id="freepik--Chandelier--inject-37" class="animable animator-active" style="transform-origin: 108.16px 109.43px;"><path d="M152.31,125.68s1.88-65.73,5.63-64.09,3.76,64.09,3.76,64.09Z" style="fill: rgb(255, 255, 255); stroke: rgb(38, 50, 56); stroke-miterlimit: 10; transform-origin: 157.005px 93.6199px;" id="elx55080m8rc" class="animable"></path><path d="M160.76,54.31c0,3.76-1.31,6.81-2.93,6.81s-2.94-3-2.94-6.81,1.31-9.15,2.94-9.15S160.76,50.55,160.76,54.31Z" style="fill: rgb(0, 255, 136); transform-origin: 157.825px 53.14px;" id="el8mf24j8pmzc" class="animable"></path><path d="M55.11,125.68S57,60,60.75,61.59s3.75,64.09,3.75,64.09Z" style="fill: rgb(255, 255, 255); stroke: rgb(38, 50, 56); stroke-miterlimit: 10; transform-origin: 59.805px 93.6208px;" id="el6y3zz454ytr" class="animable"></path><path d="M63.57,54.31c0,3.76-1.32,6.81-2.94,6.81s-2.93-3-2.93-6.81,1.31-9.15,2.93-9.15S63.57,50.55,63.57,54.31Z" style="fill: rgb(0, 255, 136); transform-origin: 60.635px 53.14px;" id="el5s89ejh6ync" class="animable"></path><path d="M103.48,97S105.35,31.3,109.11,33,112.87,97,112.87,97Z" style="fill: rgb(255, 255, 255); stroke: rgb(38, 50, 56); stroke-miterlimit: 10; transform-origin: 108.175px 64.9838px;" id="elld5a71v79p" class="animable"></path><path d="M111.93,25.67c0,3.76-1.32,6.81-2.94,6.81s-2.93-3-2.93-6.81,1.31-9.16,2.93-9.16S111.93,21.91,111.93,25.67Z" style="fill: rgb(0, 255, 136); transform-origin: 108.995px 24.495px;" id="el3zp7dlg7mqz" class="animable"></path><path d="M158.76,142.39a20,20,0,0,1,.94-2.19,28.51,28.51,0,0,0,2.33-8.34,10.56,10.56,0,0,1,4.16-7.34H148a11.08,11.08,0,0,1,2.9,3.49,29.74,29.74,0,0,1,1.57,7,15.45,15.45,0,0,0,3.44,7.38H142.44l6.67,3.26h5.35a42.25,42.25,0,0,1,.24,6.39c-.56,5.66-2.63,8.56-4.84,10.22s-6.49,1.94-10.36-1.79c-3.26-3.15-4.41-8.84-6.35-12.43s-5.25-7.46-9.8-7-6.36,3.46-7.6,4.28c-.6.4-2.06.35-3.41.2a12.55,12.55,0,0,0-.12-1.63c-.12-.78-1.7-1.7-1.83-3s1.59-2.75,1.83-5.49-1.34-7.58-2-10.46a6.13,6.13,0,0,1,1.58-5.09h-.16v-3h4.18l6.66-3.27H109.05a15.36,15.36,0,0,0,3.44-7.37,29.47,29.47,0,0,1,1.57-7,10.86,10.86,0,0,1,2.9-3.48H98.79a10.53,10.53,0,0,1,4.15,7.34,28.6,28.6,0,0,0,2.34,8.34c.36.73.68,1.5.94,2.18H93.65l6.67,3.27h3.79v3h0a6.09,6.09,0,0,1,1.58,5.09c-.61,2.88-2.19,7.71-1.94,10.46s1.94,4.18,1.82,5.49-1.7,2.22-1.82,3a15.94,15.94,0,0,0-.13,1.67,5.52,5.52,0,0,1-3-.24c-1.24-.82-3-3.86-7.59-4.28s-7.87,3.46-9.81,7-3.09,9.28-6.35,12.43c-3.87,3.73-8.15,3.45-10.36,1.79S62.22,157.7,61.67,152a41.13,41.13,0,0,1,.23-6.39h5.36l6.66-3.26H60.44A15.45,15.45,0,0,0,63.88,135a28.76,28.76,0,0,1,1.57-7,11,11,0,0,1,2.89-3.49H50.17a10.52,10.52,0,0,1,4.16,7.34,28.51,28.51,0,0,0,2.34,8.34c.36.73.68,1.5.94,2.19H45l6.66,3.26h5.54c0,2.37.29,12.34,6.22,18.27,4.81,4.8,13.54,1.52,16.16-1.93,2.25-3,4.56-15.61,10.63-17.68s7.32,1,7.88,2.21,3,1.38,3,1.38h2.41v2.35h-.1s1.59,2.87,1.25,4.83-.57,3.79-1.13,4.71a3.44,3.44,0,0,0-.68,2.74,2.5,2.5,0,0,0,1.13,1.83.9.9,0,0,0,.33.11v6.95s-3.41,8.1-2.61,12.68c.53,3,2.31,6.75,3.13,12l2.89,6.26,3.36-6.26c.83-5.28,2.61-9,3.13-12,.8-4.58-2.6-12.68-2.6-12.68V164.5a1.26,1.26,0,0,0,.51-.14,2.53,2.53,0,0,0,1.13-1.83,3.52,3.52,0,0,0-.68-2.74c-.57-.92-.79-2.75-1.13-4.71s1.24-4.83,1.24-4.83h-.41V147.9h2.86s2.48-.14,3-1.38,1.79-4.28,7.87-2.21S134.49,159,136.74,162c2.63,3.45,11.36,6.73,16.16,1.93,5.93-5.93,6.24-15.9,6.23-18.27h5.53l6.66-3.26Z" style="fill: rgb(38, 50, 56); stroke: rgb(38, 50, 56); stroke-miterlimit: 10; transform-origin: 108.16px 149.04px;" id="el23y64cb2nuej" class="animable"></path><polygon points="117.69 196.44 98.82 196.44 97.15 193 119.36 193 117.69 196.44" style="fill: rgb(38, 50, 56); stroke: rgb(38, 50, 56); stroke-miterlimit: 10; transform-origin: 108.255px 194.72px;" id="elob7fgov6lc" class="animable"></polygon></g><g id="freepik--Ghost--inject-37" class="animable" style="transform-origin: 257.062px 282.567px;"><path d="M122.89,313.6s-11.91,2.11-13.76,1.85-8.74-4.5-9.8-7.68-4.76-10.32-5.29-14-8.73-2.39-10.32-1.59-7.41,2.11-15.35,3.17-10.33,1.59-13,4.24S52,308.83,57,309.63s12.71-7.68,16.41-9.8,13.24-1.59,14.3-1.06,1.06,10.86,0,14-6.36,7.41-6.36,7.41-24.88,1.59-31,2.12-9,11.38-10.06,15.35,2.91,10.33,7.15,7.94,7.14-12.17,7.67-14.55,6.09-3.18,9.79-3.18,9.27.26,12.71.53,5,2.12,4.23,4.76-14,8.74-21.17,11.91-9.26,13-8.47,17.21,4.5,6.35,7.94,4.23,3.71-7.14,4.5-10.32,1.85-4.76,2.65-5.56,7.94-2.64,13-5,10-5,11.11-4.5.27,6.62-2.11,13.5-4,10.33-1.86,15.09,2.12,7.15,8.47,7.68,10.06-3.71,7.15-7.68-9-4.5-8.47-7.15,4-13.76,6.62-15.88,8.47-5.29,10.32-7.67,6.88-9.8,6.88-9.8l8.47-3.17Z" style="fill: rgb(38, 50, 56); stroke: rgb(38, 50, 56); stroke-miterlimit: 10; transform-origin: 83.4932px 334.364px;" id="elc41grjju0in" class="animable"></path><path d="M391.26,299.34s11.91,2.12,13.77,1.86,8.73-4.5,9.79-7.68,4.76-10.32,5.29-14,8.74-2.38,10.33-1.58,7.41,2.11,15.35,3.17,10.32,1.59,13,4.24,3.44,9.26-1.59,10.05-12.71-7.67-16.41-9.79-13.24-1.59-14.29-1.06-1.06,10.85,0,14,6.35,7.41,6.35,7.41,24.88,1.59,31,2.12,9,11.38,10,15.35-2.91,10.32-7.14,7.94-7.15-12.17-7.68-14.56-6.09-3.17-9.79-3.17-9.26.26-12.71.53-5,2.11-4.23,4.76,14,8.74,21.17,11.91,9.27,13,8.47,17.21-4.5,6.35-7.94,4.23-3.7-7.14-4.5-10.32-1.85-4.77-2.64-5.56-7.94-2.65-13-5-10.06-5-11.12-4.5-.26,6.62,2.12,13.5,4,10.32,1.85,15.09-2.12,7.14-8.47,7.67-10.06-3.7-7.15-7.67,9-4.5,8.47-7.15-4-13.76-6.61-15.88-8.47-5.29-10.33-7.68-6.88-9.79-6.88-9.79l-8.47-3.17Z" style="fill: rgb(38, 50, 56); stroke: rgb(38, 50, 56); stroke-miterlimit: 10; transform-origin: 430.639px 320.127px;" id="elv8k6mpvqmd" class="animable"></path><path d="M345.88,413,338.5,378.2s-11.39,12.5-11.75,20.58S338.93,413.58,345.88,413Z" style="fill: rgb(38, 50, 56); stroke: rgb(38, 50, 56); stroke-miterlimit: 10; transform-origin: 336.311px 395.617px;" id="elzhdhgre2gbr" class="animable"></path><path d="M171.38,375l3.3,38s18.4,2.11,24.6-4.64-10.57-31.18-18.05-34.28S171.38,375,171.38,375Z" style="fill: rgb(38, 50, 56); stroke: rgb(38, 50, 56); stroke-miterlimit: 10; transform-origin: 186.004px 393.109px;" id="el72db15iw9ew" class="animable"></path><path d="M150.75,351.18a2.57,2.57,0,0,0-.29-.19A.75.75,0,0,0,150.75,351.18Z" style="fill: rgb(0, 255, 136); stroke: rgb(38, 50, 56); stroke-miterlimit: 10; transform-origin: 150.605px 351.085px;" id="el2yk8jb1fylb" class="animable"></path><path d="M364,360.38s-.42.65-1,1.72C364.89,363.4,364,360.38,364,360.38Z" style="fill: rgb(0, 255, 136); stroke: rgb(38, 50, 56); stroke-miterlimit: 10; transform-origin: 363.605px 361.402px;" id="elhgzlvrjvj4g" class="animable"></path><path d="M339.57,423h0C339.51,423.07,339.57,423,339.57,423Z" style="fill: rgb(0, 255, 136); stroke: rgb(38, 50, 56); stroke-miterlimit: 10; transform-origin: 339.557px 423.016px;" id="elj3asfk40ta" class="animable"></path><path d="M343,256.51c-21.56-24.2-38.39-53.39-39.18-59.17s5.78-40.77,6.31-61.54S308.8,99.51,293.81,85c-7.84-7.57-20.35-10.89-31.17-9.59-12.46,1.5-21.71,10.76-29.12,20.21-17.8,22.73-17.07,60.53-23.89,84.39s-34.47,74.24-53.78,98.1-36.37,36-36.37,36,5.18,18.08,8.42,29.66,3.24,14.36,3.24,16.21a7.9,7.9,0,0,1-3.24,6.48,6.9,6.9,0,0,1-5.81,1.52,29.32,29.32,0,0,1-.53,8.94,15.6,15.6,0,0,1-2.63,5.79s8.68-5.26,9.47-5.26.53-7.89,5.52-13.15,7.89-5.79,7.89-5.79-.79-6.57,2.9-7.89a6.72,6.72,0,0,1,5.75.34c-.44-.44-1-1.84,1.35-6.12,3.15-5.79,6.31-10.78,6.31-10.78s1.57,12.88.52,18.93a15.46,15.46,0,0,1-5.26,9.2s3.69-.78,2.63,2.63-6,8.68-6,8.68a59.16,59.16,0,0,1,21.57,6.84c11,6.05,21.83,14.2,20.51,17.62s-16.57,13.41-17.36,15,9.73,16.57,19.73,19.72,18.67,8.94,18.67,9.73.26-4.47,8.15-5.78,20,3.68,18.67,7.62a28.69,28.69,0,0,1-2.89,6.32s5.52-4.21,5.52-.27.79,6.58-1.84,10a48.39,48.39,0,0,1-5.26,5.78s9.47,1.32,14.73,8.15A72.32,72.32,0,0,1,258.84,490s1.31-20.25,7.1-26l5.78-5.79s-7.89-4.47-5-15.25,10-20.51,10-20.51,2.89-7.63,3.68-8.42,3.16,2.89,4,8.68a85.13,85.13,0,0,1,.52,12.62,5.72,5.72,0,0,1,7.1,1.05c3.42,3.42,7.37,15.52,7.37,15.52l8.94-13.41s-3.95,1.05-3.68-7.89,3.68-12.89,3.68-12.89a29,29,0,0,1,3.15,9.47c1.06,6.05.53,8.68.53,8.68a49.8,49.8,0,0,1,12.1-7.63A79.38,79.38,0,0,1,339.53,423c0-.16.37-.92,1.88-4,2.37-4.74,4.47-6,4.47-6s-14.2-2.63-15-12.89,13.94-18.93,19.73-21.56a75.19,75.19,0,0,1,9.47-3.68s-2.63,0-.79-5a52.38,52.38,0,0,1,3.7-7.75,18.42,18.42,0,0,1-3.18-3.29C354,351.7,353.77,348,353.77,348s-2.89-3.68-1.84-6,3.16-18.67,3.16-18.67,1.31,15.78,4.73,20,9.47,5.26,9.47,5.26l-2.63,5.78s3.42-.26,5.52,1.32l2.11,1.58s4.47-10.52,10-23.41,9.47-35,9.47-35S364.56,280.7,343,256.51ZM142.07,337.28a3.32,3.32,0,1,1,3.31-3.31A3.32,3.32,0,0,1,142.07,337.28Zm88.73,90.58a5.89,5.89,0,1,1,5.89-5.89A5.89,5.89,0,0,1,230.8,427.86Zm12.34-11.78a3.87,3.87,0,1,1,3.86-3.87A3.87,3.87,0,0,1,243.14,416.08ZM248.48,429a2.58,2.58,0,1,1,2.57-2.58A2.58,2.58,0,0,1,248.48,429Zm95-77.13a2.12,2.12,0,1,1,2.12,2.11A2.11,2.11,0,0,1,343.46,351.84Zm11,10a5.15,5.15,0,1,1-5.15-5.14A5.16,5.16,0,0,1,354.49,361.85Z" style="fill: rgb(0, 255, 136); stroke: rgb(38, 50, 56); stroke-miterlimit: 10; transform-origin: 256.345px 282.567px;" id="ell9etwql9ox" class="animable"></path><path d="M208.82,210.51c-1.45,10.27-3.35,24.31-5.34,40.72-4.22,34.91-3.83,51-3.83,51" style="fill: none; stroke: rgb(38, 50, 56); stroke-miterlimit: 10; transform-origin: 204.23px 256.37px;" id="elv25peiyzk2o" class="animable"></path><path d="M211.54,192.15s-.79,5-2,13.71" style="fill: none; stroke: rgb(38, 50, 56); stroke-miterlimit: 10; transform-origin: 210.54px 199.005px;" id="elmt9g1mm29cj" class="animable"></path><path d="M235.6,250.91c-.91,11.31-2.19,31.62-2.19,56" style="fill: none; stroke: rgb(38, 50, 56); stroke-miterlimit: 10; transform-origin: 234.505px 278.91px;" id="el3i36l4fhsdm" class="animable"></path><path d="M236.48,241.26s-.18,1.59-.44,4.51" style="fill: none; stroke: rgb(38, 50, 56); stroke-miterlimit: 10; transform-origin: 236.26px 243.515px;" id="elipuqfvi62qj" class="animable"></path><path d="M254.12,210.18S253,224.38,253,243.56" style="fill: none; stroke: rgb(38, 50, 56); stroke-miterlimit: 10; transform-origin: 253.56px 226.87px;" id="elt1e8qzoywdf" class="animable"></path><path d="M309,250.15c.38,1.81.77,3.59,1.18,5.3" style="fill: none; stroke: rgb(38, 50, 56); stroke-miterlimit: 10; transform-origin: 309.59px 252.8px;" id="elt0rpvgpx79" class="animable"></path><path d="M302.46,204.43s1.88,20.92,5.41,40.11" style="fill: none; stroke: rgb(38, 50, 56); stroke-miterlimit: 10; transform-origin: 305.165px 224.485px;" id="elfbxcngqjhyn" class="animable"></path><path d="M317.49,335.66c-1.08-6.91-1.93-13.49-2.37-19.21" style="fill: none; stroke: rgb(38, 50, 56); stroke-miterlimit: 10; transform-origin: 316.305px 326.055px;" id="elyjatfoc3gvf" class="animable"></path><path d="M330.89,400.09s-7.61-30.37-12.37-58.16" style="fill: none; stroke: rgb(38, 50, 56); stroke-miterlimit: 10; transform-origin: 324.705px 371.01px;" id="eln1xte4fbbj" class="animable"></path><path d="M188.57,371.41c-1.29-13.09-2.25-29.27-1.44-44.34" style="fill: none; stroke: rgb(38, 50, 56); stroke-miterlimit: 10; transform-origin: 187.701px 349.24px;" id="elawg4h2bsnae" class="animable"></path><path d="M192,398s-1.45-8.27-2.82-20.42" style="fill: none; stroke: rgb(38, 50, 56); stroke-miterlimit: 10; transform-origin: 190.59px 387.79px;" id="elri3vi5lcc0b" class="animable"></path><path d="M258.33,92a19.56,19.56,0,0,1-6.22,7.56c-4.54,3.36-11.6,7.06-12.6,13.78s4.36,10.59,10.08,8.91,6-8.74,11.09-16.47,5.71-13.44,3.19-15.8S260.51,89.48,258.33,92Z" style="fill: rgb(38, 50, 56); stroke: rgb(38, 50, 56); stroke-miterlimit: 10; transform-origin: 252.35px 105.768px;" id="el2yy51tow9kw" class="animable"></path><path d="M238,135c-3.69-1.2-4.25-5.15-3.81-7.6" style="fill: none; stroke: rgb(38, 50, 56); stroke-miterlimit: 10; transform-origin: 236.031px 131.2px;" id="el7s04v6bpijm" class="animable"></path><path d="M263,106.32c-.29.89-3.86,3.86-4.45,11.58s-7.72,15.74-15.74,17.23a12.87,12.87,0,0,1-2.57.23" style="fill: none; stroke: rgb(38, 50, 56); stroke-miterlimit: 10; transform-origin: 251.62px 120.84px;" id="els7k0ums8ms8" class="animable"></path><path d="M252.62,123.25s-6.54,4.75-11,4.45-5-3.56-5-9.5" style="fill: none; stroke: rgb(38, 50, 56); stroke-miterlimit: 10; transform-origin: 244.62px 122.957px;" id="eljm2pkxkni7" class="animable"></path><path d="M277.41,136.35c2.82,4.19,9.32,5.12,12.63,3.23,4.16-2.37,4.16-12.77,3.56-15.44" style="fill: none; stroke: rgb(38, 50, 56); stroke-miterlimit: 10; transform-origin: 285.647px 132.327px;" id="elnppjvist8vc" class="animable"></path><path d="M270.44,117.61s5.05,7.42,5.64,14.85a8,8,0,0,0,.14,1" style="fill: none; stroke: rgb(38, 50, 56); stroke-miterlimit: 10; transform-origin: 273.33px 125.535px;" id="elqnpvddo7kdp" class="animable"></path><path d="M290.26,133.11a16.31,16.31,0,0,0,1.56-6" style="fill: none; stroke: rgb(38, 50, 56); stroke-miterlimit: 10; transform-origin: 291.04px 130.11px;" id="elp6m7k2k2dlo" class="animable"></path><path d="M274.89,122.36a25.43,25.43,0,0,1,4.46,8,7.74,7.74,0,0,0,7.06,5.22" style="fill: none; stroke: rgb(38, 50, 56); stroke-miterlimit: 10; transform-origin: 280.65px 128.97px;" id="elepnnp0bieif" class="animable"></path><path d="M274.35,89.47A7.89,7.89,0,0,0,273.1,95a108,108,0,0,1,.86,16.71c-.34,9.92,5,15.46,9.74,16.47s8.91-4,7.56-11.26-6.21-9.91-8.73-16.3C280.32,95,277.86,84.38,274.35,89.47Z" style="fill: rgb(38, 50, 56); stroke: rgb(38, 50, 56); stroke-miterlimit: 10; transform-origin: 282.267px 108.218px;" id="el32d02unqv4m" class="animable"></path><path d="M283.39,146.71a14.58,14.58,0,0,0-4.61-3.79c-1.9-1-4.87-3.7-7.18-10.42-3.69-10.75-10.25-10.08-14.62-2.86s-2.52,10.25-7.56,16.3S236,155,236.82,164.09s8.4,13.11,15,7.73S258,156.53,261,149.31s4.7-5.05,6.55,2.18-1.35,19,2.18,23.7,10.76,2.35,14.29-7.74C287.13,158.61,288.81,153.77,283.39,146.71Z" style="fill: rgb(38, 50, 56); stroke: rgb(38, 50, 56); stroke-miterlimit: 10; transform-origin: 261.84px 150.911px;" id="elq29s9260q6r" class="animable"></path></g><defs>     <filter id="active" height="200%">         <feMorphology in="SourceAlpha" result="DILATED" operator="dilate" radius="2"></feMorphology>                <feFlood flood-color="#32DFEC" flood-opacity="1" result="PINK"></feFlood>        <feComposite in="PINK" in2="DILATED" operator="in" result="OUTLINE"></feComposite>        <feMerge>            <feMergeNode in="OUTLINE"></feMergeNode>            <feMergeNode in="SourceGraphic"></feMergeNode>        </feMerge>    </filter>    <filter id="hover" height="200%">        <feMorphology in="SourceAlpha" result="DILATED" operator="dilate" radius="2"></feMorphology>                <feFlood flood-color="#ff0000" flood-opacity="0.5" result="PINK"></feFlood>        <feComposite in="PINK" in2="DILATED" operator="in" result="OUTLINE"></feComposite>        <feMerge>            <feMergeNode in="OUTLINE"></feMergeNode>            <feMergeNode in="SourceGraphic"></feMergeNode>        </feMerge>            <feColorMatrix type="matrix" values="0   0   0   0   0                0   1   0   0   0                0   0   0   0   0                0   0   0   1   0 "></feColorMatrix>    </filter></defs></svg>